<svg id="a0ef9577-c139-45c4-b2d3-bc2a2ec868cd" data-name="Layer 1" xmlns="http://www.w3.org/2000/svg" xmlns:xlink="http://www.w3.org/1999/xlink" width="2894.33" height="1799.54" viewBox="0 0 2894.33 1799.54"><defs><radialGradient id="a0e73ee7-9b77-4a76-8705-e0b1b15d06c5" cx="579.66" cy="394.21" r="578.79" gradientTransform="translate(-1038.72 -0.69) scale(4 2.49)" gradientUnits="userSpaceOnUse"><stop offset="0" stop-color="#00b7ba"/><stop offset="0.25" stop-color="#1a828f"/><stop offset="0.49" stop-color="#2f566b"/><stop offset="0.7" stop-color="#3e3752"/><stop offset="0.88" stop-color="#482443"/><stop offset="1" stop-color="#4b1d3d"/></radialGradient><linearGradient id="fcd5fd06-a257-444b-9d1b-a36850c35870" x1="528.75" y1="475.45" x2="735.74" y2="874.41" gradientUnits="userSpaceOnUse"><stop offset="0" stop-color="#00b7ba"/><stop offset="0.34" stop-color="#01b5b8"/><stop offset="0.46" stop-color="#04aeb3"/><stop offset="0.55" stop-color="#0aa3a9"/><stop offset="0.62" stop-color="#12929c"/><stop offset="0.68" stop-color="#1d7c8a"/><stop offset="0.74" stop-color="#2a6074"/><stop offset="0.78" stop-color="#39415a"/><stop offset="0.83" stop-color="#4b1d3d"/></linearGradient><radialGradient id="fde9b098-49c8-47bf-ab89-464b1fbc5973" cx="645.63" cy="335.19" r="427.79" gradientTransform="translate(-1038.72 -0.69) scale(4 2.49)" gradientUnits="userSpaceOnUse"><stop offset="0" stop-color="#00b7ba"/><stop offset="0.19" stop-color="#1a828f"/><stop offset="0.37" stop-color="#2f566b"/><stop offset="0.53" stop-color="#3e3752"/><stop offset="0.67" stop-color="#482443"/><stop offset="0.77" stop-color="#4b1d3d"/></radialGradient><linearGradient id="a31657db-1b85-42fb-8861-c663e2795652" x1="2655.99" y1="869.33" x2="1625.94" y2="1899.39" gradientUnits="userSpaceOnUse"><stop offset="0.19" stop-color="#ef3a48"/><stop offset="0.41" stop-color="#ed3a48"/><stop offset="0.49" stop-color="#e63847"/><stop offset="0.54" stop-color="#db3647"/><stop offset="0.59" stop-color="#ca3345"/><stop offset="0.63" stop-color="#b42f44"/><stop offset="0.66" stop-color="#982b42"/><stop offset="0.69" stop-color="#782540"/><stop offset="0.72" stop-color="#541f3e"/><stop offset="0.72" stop-color="#4b1d3d"/></linearGradient><linearGradient id="a1bca2ba-ab9f-4d0d-b1d7-e0b49b32ce2d" x1="785.48" y1="1028.9" x2="886.55" y2="1238.64" gradientUnits="userSpaceOnUse"><stop offset="0.08" stop-color="#ef3a48"/><stop offset="0.38" stop-color="#ed3a48"/><stop offset="0.48" stop-color="#e63847"/><stop offset="0.56" stop-color="#db3647"/><stop offset="0.62" stop-color="#ca3345"/><stop offset="0.67" stop-color="#b42f44"/><stop offset="0.72" stop-color="#982b42"/><stop offset="0.76" stop-color="#782540"/><stop offset="0.8" stop-color="#541f3e"/><stop offset="0.81" stop-color="#4b1d3d"/></linearGradient><linearGradient id="ea4ee234-8cf1-4173-8670-626ee8875369" x1="399.79" y1="104.57" x2="59.4" y2="444.95" gradientUnits="userSpaceOnUse"><stop offset="0.29" stop-color="#fec55c"/><stop offset="0.46" stop-color="#fcc35b"/><stop offset="0.53" stop-color="#f5bd59"/><stop offset="0.57" stop-color="#eab256"/><stop offset="0.61" stop-color="#d9a351"/><stop offset="0.64" stop-color="#c38f4a"/><stop offset="0.66" stop-color="#a77742"/><stop offset="0.69" stop-color="#885a39"/><stop offset="0.71" stop-color="#6d4231"/></linearGradient><radialGradient id="f0607f6e-dde4-434f-b1b5-1dacd8823d79" cx="575.7" cy="437.72" r="306.95" gradientTransform="translate(-1038.72 -0.69) scale(4 2.49)" gradientUnits="userSpaceOnUse"><stop offset="0" stop-color="#00b7ba"/><stop offset="0.18" stop-color="#01b4b8"/><stop offset="0.31" stop-color="#06abb0"/><stop offset="0.42" stop-color="#0e9ba3"/><stop offset="0.53" stop-color="#188591"/><stop offset="0.63" stop-color="#26687a"/><stop offset="0.72" stop-color="#37455e"/><stop offset="0.81" stop-color="#4b1d3d"/></radialGradient><linearGradient id="a25e9f67-3712-403d-b28b-8a41370cd767" x1="411.74" y1="331.87" x2="-579.98" y2="1323.59" gradientUnits="userSpaceOnUse"><stop offset="0.19" stop-color="#ef3a48"/><stop offset="0.42" stop-color="#ed3a48"/><stop offset="0.5" stop-color="#e63847"/><stop offset="0.55" stop-color="#db3647"/><stop offset="0.6" stop-color="#ca3345"/><stop offset="0.64" stop-color="#b42f44"/><stop offset="0.68" stop-color="#982b42"/><stop offset="0.71" stop-color="#782540"/><stop offset="0.74" stop-color="#541f3e"/><stop offset="0.74" stop-color="#4b1d3d"/></linearGradient><linearGradient id="b665ca7c-5d2d-4f4e-8eb0-c1a8e8149340" x1="2440.32" y1="1270.86" x2="1812.81" y2="1898.37" gradientUnits="userSpaceOnUse"><stop offset="0.3" stop-color="#00b7ba"/><stop offset="0.49" stop-color="#01b5b8"/><stop offset="0.56" stop-color="#04aeb3"/><stop offset="0.61" stop-color="#0aa3a9"/><stop offset="0.65" stop-color="#12929c"/><stop offset="0.68" stop-color="#1d7c8a"/><stop offset="0.71" stop-color="#2a6074"/><stop offset="0.74" stop-color="#39415a"/><stop offset="0.76" stop-color="#4b1d3d"/></linearGradient><linearGradient id="e28b72af-3cd1-4487-81f9-dcaa2dea620f" x1="871.49" y1="2197.37" x2="1666.22" y2="1402.64" gradientUnits="userSpaceOnUse"><stop offset="0.37" stop-color="#00b7ba"/><stop offset="0.55" stop-color="#01b5b8"/><stop offset="0.61" stop-color="#04aeb3"/><stop offset="0.66" stop-color="#0aa3a9"/><stop offset="0.7" stop-color="#12929c"/><stop offset="0.73" stop-color="#1d7c8a"/><stop offset="0.76" stop-color="#2a6074"/><stop offset="0.79" stop-color="#39415a"/><stop offset="0.81" stop-color="#4b1d3d"/></linearGradient><linearGradient id="bfcab752-0740-4c78-80dd-8b60820fcd39" x1="-107.78" y1="1503.67" x2="331.77" y2="1707.97" gradientUnits="userSpaceOnUse"><stop offset="0.3" stop-color="#00b7ba"/><stop offset="0.49" stop-color="#01b5b8"/><stop offset="0.55" stop-color="#04aeb3"/><stop offset="0.6" stop-color="#0aa3a9"/><stop offset="0.64" stop-color="#12929c"/><stop offset="0.67" stop-color="#1d7c8a"/><stop offset="0.7" stop-color="#2a6074"/><stop offset="0.73" stop-color="#39415a"/><stop offset="0.75" stop-color="#4b1d3d"/></linearGradient></defs><rect width="2894.32" height="1799.53" style="fill:#4b1d3d;opacity:0.8"/><path d="M2322,1324.08c-26.55,8.53-62.47,5.39-83.67-7.8-24.35-15.13-27.44-34.68-15.38-52.74,4.87-7.29,163.86-241.88,176.33-263.47,20.88-36.17,9.54-62.37-40.43-93.44L901.37.46H2880V1147.22S2348.61,1315.53,2322,1324.08Z" transform="translate(14.33 -0.46)" style="opacity:0.8;fill:url(#a0e73ee7-9b77-4a76-8705-e0b1b15d06c5)"/><path d="M1654.26.46h18.58l598.43,372.07c70,43.53,81.27,86.43,36.55,139.12,0,0-284.17,344.33-294.47,356.72-10.47,12.59-7.73,25.69,7.47,35.15,11.88,7.33,34.09,13.18,57.54,5.49,56.24-18.42,454.25-144.53,801.64-254.55v9.17c-345.92,109.55-739.66,234.31-795.53,252.6-29.74,9.75-57.85,2.37-73.09-7-19.31-12-22.94-28.67-9.71-44.57,10.28-12.37,294.54-356.79,294.54-356.79,41.6-49,31-88.95-34.23-129.53Z" transform="translate(14.33 -0.46)" style="fill:#00b7ba;opacity:0.8"/><path d="M998.37,504.17c-15.88-9.87-40.8-11.7-62-4.89-41.21,13.24-433.52,142-433.52,142L289,900.23,867.25,709.76s124.89-153,137.66-168C1017.86,526.45,1011.89,512.58,998.37,504.17Z" transform="translate(14.33 -0.46)" style="opacity:0.8;fill:url(#fcd5fd06-a257-444b-9d1b-a36850c35870)"/><path d="M1253.57,981.86c-42.21-26.25-51.79-48.37-34.14-78.92,10.53-18.24,144.8-216.36,148.91-222.51,10.18-15.26,11.44-33.11-10.59-46.8s-50.64-11.53-73.06-4.33c-9.83,3.15-738.82,233.33-1299,410.23V1800H2569.45Z" transform="translate(14.33 -0.46)" style="opacity:0.8;fill:url(#fde9b098-49c8-47bf-ab89-464b1fbc5973)"/><path d="M1594.48,1069.33c-27.13-16.87-63.88-25.34-100.15-17.07-11.73,2.68-58.55,15.35-89.35,23.74l1164.47,724h200.22Z" transform="translate(14.33 -0.46)" style="opacity:0.8;fill:url(#a31657db-1b85-42fb-8861-c663e2795652)"/><path d="M1004,1054.59c-5.57-3.47-16.54-5.12-25.73-2.16-17.59,5.65-193,63-193,63L680.05,1243.78,928,1167.64s73.14-88.7,80-96.8C1013.6,1064.22,1009.36,1057.93,1004,1054.59Z" transform="translate(14.33 -0.46)" style="opacity:0.8;fill:url(#a1bca2ba-ab9f-4d0d-b1d7-e0b49b32ce2d)"/><path d="M434.56,369.14-14.33,90.05V308.59L379.52,553.47c25.16-37,77.27-113.73,82.49-122.06C478.18,405.63,458.08,383.78,434.56,369.14Z" transform="translate(14.33 -0.46)" style="opacity:0.8;fill:url(#ea4ee234-8cf1-4173-8670-626ee8875369)"/><path d="M1268,1114.56c12.6-14.87,3.1-29-9-36.47-13-8.1-37.11-11.48-57.73-4.85-54.9,17.65-828.9,252.44-859,259.15-61.69,13.78-106.47,6.24-159.74-26.88l-196.9-122.43V1800h720S1248.16,1137.94,1268,1114.56Z" transform="translate(14.33 -0.46)" style="opacity:0.8;fill:url(#f0607f6e-dde4-434f-b1b5-1dacd8823d79)"/><path d="M-14.33,214.5V1301.38C246.48,984.65,537.1,631.82,537.1,631.82c28.62-33.71,21.35-61.19-23.54-89.1Z" transform="translate(14.33 -0.46)" style="opacity:0.8;fill:url(#a25e9f67-3712-403d-b28b-8a41370cd767)"/><path d="M513.56,542.72-14.33,214.5v94.09l478.2,297.32c36,22.38,47.73,44.49,36.25,69.74a7.41,7.41,0,0,1,2.18-1.59l34.8-42.24C565.72,598.11,558.45,570.63,513.56,542.72Z" transform="translate(14.33 -0.46)" style="fill:#f3756e;opacity:0.8"/><path d="M1755.66,1430.85c76.42-17.37,139.88-3,199.27,34L2494,1800H2242.31l-563.58-350.4C1711,1441.41,1737.14,1435.06,1755.66,1430.85Z" transform="translate(14.33 -0.46)" style="opacity:0.8;fill:url(#b665ca7c-5d2d-4f4e-8eb0-c1a8e8149340)"/><path d="M1317.5,1337.15,593.27,1523c-34.14,8.81-72.7,3.72-100.2-13.37-26.44-16.44-31.12-40.06-14.8-59.69L1074.19,724c12.6-14.87,5.29-27.6-9.12-36.56-15.46-9.61-37-11.39-57.58-4.76L347,899c-73.53,24.13-133.44,18-194.25-19.78l-167.1-103.9V761.19h0V1800H2178.42l-701.19-436C1424,1330.91,1379.18,1323.37,1317.5,1337.15Z" transform="translate(14.33 -0.46)" style="fill:#ef3a48;opacity:0.8"/><path d="M705.67,1800H2178.42l-701.19-436c-53.27-33.12-98-40.66-159.73-26.88l-294.34,75.52C871.6,1597.5,705.86,1799.76,705.67,1800Z" transform="translate(14.33 -0.46)" style="fill:#f3756e;opacity:0.8"/><path d="M342.31,1332.39c12.23-2.73,147.55-43.19,307.49-91.43l424.39-517c12.6-14.87,5.29-27.6-9.12-36.56-15.46-9.61-37-11.39-57.58-4.76L347,899c-73.53,24.13-133.44,18-194.25-19.78l-167.1-103.9v407.81l196.9,122.43C235.84,1338.63,280.62,1346.17,342.31,1332.39Z" transform="translate(14.33 -0.46)" style="fill:#f3756e;opacity:0.8"/><path d="M512.13,944.76c45.22-14.53,94.1-10.62,128,10.45,26,16.14,46,47.6,18.33,80.2C609.85,1092.74,325.37,1439.53,30,1800H-14.33V1116.75C237.38,1034.27,449.71,964.83,512.13,944.76Z" transform="translate(14.33 -0.46)" style="fill:#fec55c;opacity:0.8"/><path d="M640.12,955.21c-33.89-21.07-82.77-25-128-10.45-62.42,20.07-274.75,89.51-526.46,172v66.33l196.9,122.43c53.27,33.12,98.05,40.66,159.74,26.88,5.93-1.32,40.88-11.54,93.5-27.2,114.61-139.52,198.27-241,222.64-269.78C686.09,1002.81,666.09,971.35,640.12,955.21Z" transform="translate(14.33 -0.46)" style="fill:#4b1d3d;opacity:0.8"/><path d="M1492.36,1453.05c7.94-14.13,20.43-33.53,36-57.26L2178.42,1800H1858.88l-294.21-182.93C1467.67,1556.75,1461.19,1508.5,1492.36,1453.05Z" transform="translate(14.33 -0.46)" style="fill:#fec55c;opacity:0.8"/><polygon points="1251.04 1515.19 830.19 1799.54 1708.46 1799.53 1251.04 1515.19" style="opacity:0.8;fill:url(#e28b72af-3cd1-4487-81f9-dcaa2dea620f)"/><path d="M-14.33,1554.07V1800H30C130.17,1677.73,229.1,1557,318,1448.68,235.14,1475,108.67,1515.11-14.33,1554.07Z" transform="translate(14.33 -0.46)" style="opacity:0.8;fill:url(#bfcab752-0740-4c78-80dd-8b60820fcd39)"/><path d="M-14.33,735.55l199,123.75c53.6,33.33,93.78,30.38,141.22,14.81L986.74,657.69c37.85-12.16,81.08-8.28,110.27,9.86,28.18,17.52,36.6,46.55,17.15,69.51L518.4,1462.8c-10.78,13,1,23.14,6.57,26.9,10.19,6.8,29.54,12.86,51,7.32,12.93-3.33,667.16-173.11,726.28-186.31,77.92-17.4,141.75-7.08,207,33.46L2242.31,1800h-63.89l-701.19-436c-53.27-33.12-98-40.66-159.73-26.88L593.27,1523c-34.14,8.81-72.7,3.72-100.2-13.37-26.44-16.44-31.12-40.06-14.8-59.69L1074.19,724c12.6-14.87,5.29-27.6-9.12-36.56-15.46-9.61-37-11.39-57.58-4.76L347,899c-73.53,24.13-133.44,18-194.25-19.78l-167.1-103.9Z" transform="translate(14.33 -0.46)" style="fill:#fedec5;opacity:0.8"/><path d="M1127.66,1506.49c38.94-12.52,90.07-2.63,109,9.17,22.8,14.17,40.76,40.8,17,68.89-20,23.58-86.31,104-177.86,215.45h-845C595.6,1680.33,1038.64,1535.1,1127.66,1506.49Z" transform="translate(14.33 -0.46)" style="fill:#fec55c;opacity:0.8"/><path d="M1253.66,1584.55c23.81-28.09,5.85-54.72-17-68.89-19-11.8-70.11-21.69-109-9.17-35.46,11.4-127.12,41.31-247.6,80.72L705.67,1800H1075.8C1167.35,1688.57,1233.67,1608.13,1253.66,1584.55Z" transform="translate(14.33 -0.46)" style="fill:#fedec5;opacity:0.8"/><path d="M424.45,1469.06c10.4-12.52,4.36-28.5-8.58-36.55-15.78-9.81-39.66-12-59.3-5.58-26.08,8.55-207.67,66.09-370.9,117.78v16.77c166-52.58,355.29-112.55,382.1-121.33,12.71-4.17,23.66-1.37,30.13,2.66,8.22,5.11,10.88,12.57,5.2,19.39-17.15,20.64-185,218.34-185,218.34-20.63,24.31-15.41,44.11,16.92,64.22L323.89,1800h34L252,1734.19c-28.5-17.71-26-31-12.66-46.67C239.37,1687.52,407.23,1489.75,424.45,1469.06Z" transform="translate(14.33 -0.46)" style="fill:#4b1d3d;opacity:0.8"/></svg>