<?xml version="1.0" encoding="utf-8"?>
<!-- Generator: Adobe Illustrator 24.1.0, SVG Export Plug-In . SVG Version: 6.00 Build 0)  -->
<svg version="1.1" id="Layer_1" xmlns="http://www.w3.org/2000/svg" xmlns:xlink="http://www.w3.org/1999/xlink" x="0px" y="0px"
	 viewBox="0 0 2880 1800" enable-background="new 0 0 2880 1800" xml:space="preserve">
<g opacity="0.2994">
	
		<image overflow="visible" opacity="0.75" width="2925" height="1830" xlink:href="54B5E28F67E844EB.png"  transform="matrix(1 0 0 1 -15 -8)">
	</image>
	<g>
		<rect x="-6.3" y="0.5" fill="#4B1D3D" width="2894.3" height="1799.5"/>
	</g>
</g>
<g opacity="0.1803">
	
		<image overflow="visible" opacity="0.75" width="2009" height="1359" xlink:href="54B5E28F67E844E9.png"  transform="matrix(1 0 0 1 901 -8)">
	</image>
	<g>
		
			<radialGradient id="SVGID_1_" cx="581.6541" cy="394.2115" r="578.7877" gradientTransform="matrix(4.0041 0 0 2.4895 -1038.7239 -0.6918)" gradientUnits="userSpaceOnUse">
			<stop  offset="0" style="stop-color:#00B7BA"/>
			<stop  offset="0.2475" style="stop-color:#1A828F"/>
			<stop  offset="0.4848" style="stop-color:#2F566B"/>
			<stop  offset="0.6968" style="stop-color:#3F3752"/>
			<stop  offset="0.8757" style="stop-color:#482442"/>
			<stop  offset="1" style="stop-color:#4B1D3D"/>
		</radialGradient>
		<path fill="url(#SVGID_1_)" d="M2330,1324.1c-26.6,8.5-62.5,5.4-83.7-7.8c-24.3-15.1-27.4-34.7-15.4-52.7
			c4.9-7.3,163.9-241.9,176.3-263.5c20.9-36.2,9.5-62.4-40.4-93.4L909.4,0.5H2888v1146.8C2888,1147.2,2356.6,1315.5,2330,1324.1z"/>
	</g>
</g>
<g opacity="0.1632">
	
		<image overflow="visible" opacity="0.75" width="1256" height="951" xlink:href="54B5E28F67E844EF.png"  transform="matrix(1 0 0 1 1654 -8)">
	</image>
	<g>
		<path fill="#00B7BA" d="M1662.3,0.5h18.6l598.4,372.1c70,43.5,81.3,86.4,36.6,139.1c0,0-284.2,344.3-294.5,356.7
			c-10.5,12.6-7.7,25.7,7.5,35.1c11.9,7.3,34.1,13.2,57.5,5.5c56.2-18.4,454.3-144.5,801.6-254.6v9.2
			c-345.9,109.6-739.7,234.3-795.5,252.6c-29.7,9.7-57.9,2.4-73.1-7c-19.3-12-22.9-28.7-9.7-44.6c10.3-12.4,294.5-356.8,294.5-356.8
			c41.6-49,31-88.9-34.2-129.5L1662.3,0.5z"/>
	</g>
</g>
<g opacity="0.2324">
	
		<image overflow="visible" opacity="0.75" width="755" height="436" xlink:href="54B5E28F67E844E8.png"  transform="matrix(1 0 0 1 288 487)">
	</image>
	<g>
		<linearGradient id="SVGID_2_" gradientUnits="userSpaceOnUse" x1="536.7468" y1="475.4536" x2="743.7424" y2="874.4103">
			<stop  offset="0" style="stop-color:#00B7BA"/>
			<stop  offset="0.3408" style="stop-color:#01B5B9"/>
			<stop  offset="0.4635" style="stop-color:#04AEB3"/>
			<stop  offset="0.551" style="stop-color:#0AA2AA"/>
			<stop  offset="0.6218" style="stop-color:#12929C"/>
			<stop  offset="0.6824" style="stop-color:#1D7C8A"/>
			<stop  offset="0.736" style="stop-color:#2A6074"/>
			<stop  offset="0.7834" style="stop-color:#3A415A"/>
			<stop  offset="0.8263" style="stop-color:#4B1D3D"/>
		</linearGradient>
		<path fill="url(#SVGID_2_)" d="M1006.4,504.2c-15.9-9.9-40.8-11.7-62-4.9c-41.2,13.2-433.5,142-433.5,142L297,900.2l578.3-190.5
			c0,0,124.9-153,137.7-168C1025.9,526.5,1019.9,512.6,1006.4,504.2z"/>
	</g>
</g>
<g opacity="0.1571">
	
		<image overflow="visible" opacity="0.75" width="2615" height="1207" xlink:href="54B5E28F67E844E6.png"  transform="matrix(1 0 0 1 -15 615)">
	</image>
	<g>
		
			<radialGradient id="SVGID_3_" cx="647.6234" cy="335.1937" r="427.7862" gradientTransform="matrix(4.0041 0 0 2.4895 -1038.7239 -0.6918)" gradientUnits="userSpaceOnUse">
			<stop  offset="0" style="stop-color:#00B7BA"/>
			<stop  offset="0.1897" style="stop-color:#1A828F"/>
			<stop  offset="0.3716" style="stop-color:#2F566B"/>
			<stop  offset="0.5341" style="stop-color:#3F3752"/>
			<stop  offset="0.6712" style="stop-color:#482442"/>
			<stop  offset="0.7665" style="stop-color:#4B1D3D"/>
		</radialGradient>
		<path fill="url(#SVGID_3_)" d="M1261.6,981.9c-42.2-26.2-51.8-48.4-34.1-78.9c10.5-18.2,144.8-216.4,148.9-222.5
			c10.2-15.3,11.4-33.1-10.6-46.8c-22-13.7-50.6-11.5-73.1-4.3c-9.8,3.2-738.8,233.3-1299,410.2V1800h2583.8L1261.6,981.9z"/>
	</g>
</g>
<g opacity="0.1644">
	
		<image overflow="visible" opacity="0.75" width="1396" height="781" xlink:href="54B5E28F67E844E7.png"  transform="matrix(1 0 0 1 1404 1041)">
	</image>
	<g>
		<linearGradient id="SVGID_4_" gradientUnits="userSpaceOnUse" x1="2663.9893" y1="869.331" x2="1633.9351" y2="1899.3853">
			<stop  offset="0.1916" style="stop-color:#EF3A48"/>
			<stop  offset="0.4087" style="stop-color:#ED3A48"/>
			<stop  offset="0.4869" style="stop-color:#E63948"/>
			<stop  offset="0.5427" style="stop-color:#DA3747"/>
			<stop  offset="0.5878" style="stop-color:#C93446"/>
			<stop  offset="0.6264" style="stop-color:#B33044"/>
			<stop  offset="0.6606" style="stop-color:#982B42"/>
			<stop  offset="0.6915" style="stop-color:#782540"/>
			<stop  offset="0.719" style="stop-color:#541E3D"/>
			<stop  offset="0.7246" style="stop-color:#4B1D3D"/>
		</linearGradient>
		<path fill="url(#SVGID_4_)" d="M1602.5,1069.3c-27.1-16.9-63.9-25.3-100.2-17.1c-11.7,2.7-58.5,15.3-89.3,23.7l1164.5,724h200.2
			L1602.5,1069.3z"/>
	</g>
</g>
<g opacity="0.2065">
	
		<image overflow="visible" opacity="0.75" width="361" height="224" xlink:href="54B5E28F67E844F7.png"  transform="matrix(1 0 0 1 680 1042)">
	</image>
	<g>
		<linearGradient id="SVGID_5_" gradientUnits="userSpaceOnUse" x1="793.4827" y1="1028.8992" x2="894.5532" y2="1238.6372">
			<stop  offset="7.784430e-02" style="stop-color:#EF3A48"/>
			<stop  offset="0.3755" style="stop-color:#ED3A48"/>
			<stop  offset="0.4827" style="stop-color:#E63948"/>
			<stop  offset="0.5591" style="stop-color:#DA3747"/>
			<stop  offset="0.6209" style="stop-color:#C93446"/>
			<stop  offset="0.6738" style="stop-color:#B33044"/>
			<stop  offset="0.7207" style="stop-color:#982B42"/>
			<stop  offset="0.7631" style="stop-color:#782540"/>
			<stop  offset="0.8008" style="stop-color:#541E3D"/>
			<stop  offset="0.8084" style="stop-color:#4B1D3D"/>
		</linearGradient>
		<path fill="url(#SVGID_5_)" d="M1012,1054.6c-5.6-3.5-16.5-5.1-25.7-2.2c-17.6,5.7-193,63-193,63l-105.2,128.3l247.9-76.1
			c0,0,73.1-88.7,80-96.8C1021.6,1064.2,1017.4,1057.9,1012,1054.6z"/>
	</g>
</g>
<g opacity="0.1004">
	
		<image overflow="visible" opacity="0.75" width="513" height="494" xlink:href="54B5E28F67E844F9.png"  transform="matrix(1 0 0 1 -15 82)">
	</image>
	<g>
		<linearGradient id="SVGID_6_" gradientUnits="userSpaceOnUse" x1="407.7853" y1="104.5682" x2="67.3986" y2="444.9548">
			<stop  offset="0.2882" style="stop-color:#FEC55C"/>
			<stop  offset="0.4625" style="stop-color:#FCC45C"/>
			<stop  offset="0.5254" style="stop-color:#F6BE5A"/>
			<stop  offset="0.5701" style="stop-color:#EAB356"/>
			<stop  offset="0.6063" style="stop-color:#D9A451"/>
			<stop  offset="0.6373" style="stop-color:#C3904B"/>
			<stop  offset="0.6648" style="stop-color:#A87743"/>
			<stop  offset="0.689" style="stop-color:#885A39"/>
			<stop  offset="0.7061" style="stop-color:#6D4231"/>
		</linearGradient>
		<path fill="url(#SVGID_6_)" d="M442.6,369.1L-6.3,90v218.5l393.9,244.9c25.2-37,77.3-113.7,82.5-122.1
			C486.2,405.6,466.1,383.8,442.6,369.1z"/>
	</g>
</g>
<g opacity="0.2333">
	
		<image overflow="visible" opacity="0.75" width="1319" height="761" xlink:href="54B5E28F67E844FB.png"  transform="matrix(1 0 0 1 -15 1061)">
	</image>
	<g>
		
			<radialGradient id="SVGID_7_" cx="577.6999" cy="437.716" r="306.9512" gradientTransform="matrix(4.0041 0 0 2.4895 -1038.7239 -0.6918)" gradientUnits="userSpaceOnUse">
			<stop  offset="0" style="stop-color:#00B7BA"/>
			<stop  offset="0.181" style="stop-color:#01B4B8"/>
			<stop  offset="0.3109" style="stop-color:#06ABB0"/>
			<stop  offset="0.425" style="stop-color:#0E9BA3"/>
			<stop  offset="0.5298" style="stop-color:#198591"/>
			<stop  offset="0.6283" style="stop-color:#27687A"/>
			<stop  offset="0.7209" style="stop-color:#38455D"/>
			<stop  offset="0.8081" style="stop-color:#4B1D3D"/>
		</radialGradient>
		<path fill="url(#SVGID_7_)" d="M1276,1114.6c12.6-14.9,3.1-29-9-36.5c-13-8.1-37.1-11.5-57.7-4.9
			c-54.9,17.6-828.9,252.4-859,259.2c-61.7,13.8-106.5,6.2-159.7-26.9L-6.3,1183.1V1800l720,0C713.7,1800,1256.2,1137.9,1276,1114.6
			z"/>
	</g>
</g>
<g opacity="0.2915">
	
		<image overflow="visible" opacity="0.75" width="600" height="1118" xlink:href="3E49BEBA0491F608.png"  transform="matrix(1 0 0 1 -15 206)">
	</image>
	<g>
		<linearGradient id="SVGID_8_" gradientUnits="userSpaceOnUse" x1="419.7352" y1="331.8736" x2="-571.9827" y2="1323.5916">
			<stop  offset="0.1916" style="stop-color:#EF3A48"/>
			<stop  offset="0.4161" style="stop-color:#ED3A48"/>
			<stop  offset="0.4969" style="stop-color:#E63948"/>
			<stop  offset="0.5545" style="stop-color:#DA3747"/>
			<stop  offset="0.6011" style="stop-color:#C93446"/>
			<stop  offset="0.6411" style="stop-color:#B33044"/>
			<stop  offset="0.6764" style="stop-color:#982B42"/>
			<stop  offset="0.7084" style="stop-color:#782540"/>
			<stop  offset="0.7368" style="stop-color:#541E3D"/>
			<stop  offset="0.7425" style="stop-color:#4B1D3D"/>
		</linearGradient>
		<path fill="url(#SVGID_8_)" d="M-6.3,214.5v1086.9c260.8-316.7,551.4-669.6,551.4-669.6c28.6-33.7,21.3-61.2-23.5-89.1L-6.3,214.5
			z"/>
	</g>
</g>
<g opacity="0.1036">
	
		<image overflow="visible" opacity="0.75" width="600" height="492" xlink:href="3E49BEBA0491F60F.png"  transform="matrix(1 0 0 1 -15 206)">
	</image>
	<g>
		<path fill="#F3756E" d="M521.6,542.7L-6.3,214.5v94.1l478.2,297.3c36,22.4,47.7,44.5,36.3,69.7c0.5-0.6,1.3-1.1,2.2-1.6
			c22.2-27,34.8-42.2,34.8-42.2C573.7,598.1,566.5,570.6,521.6,542.7z"/>
	</g>
</g>
<g opacity="0.1947">
	
		<image overflow="visible" opacity="0.75" width="847" height="407" xlink:href="3E49BEBA0491F609.png"  transform="matrix(1 0 0 1 1678 1415)">
	</image>
	<g>
		<linearGradient id="SVGID_9_" gradientUnits="userSpaceOnUse" x1="2448.3169" y1="1270.8607" x2="1820.8119" y2="1898.3656">
			<stop  offset="0.303" style="stop-color:#00B7BA"/>
			<stop  offset="0.493" style="stop-color:#01B5B9"/>
			<stop  offset="0.5614" style="stop-color:#04AEB3"/>
			<stop  offset="0.6102" style="stop-color:#0AA2AA"/>
			<stop  offset="0.6496" style="stop-color:#12929C"/>
			<stop  offset="0.6834" style="stop-color:#1D7C8A"/>
			<stop  offset="0.7133" style="stop-color:#2A6074"/>
			<stop  offset="0.7397" style="stop-color:#3A415A"/>
			<stop  offset="0.7636" style="stop-color:#4B1D3D"/>
		</linearGradient>
		<path fill="url(#SVGID_9_)" d="M1763.7,1430.8c76.4-17.4,139.9-3,199.3,34L2502,1800h-251.7l-563.6-350.4
			C1719,1441.4,1745.1,1435.1,1763.7,1430.8z"/>
	</g>
</g>
<g opacity="0.2208">
	
		<image overflow="visible" opacity="0.75" width="2224" height="1152" xlink:href="3E49BEBA0491F60B.png"  transform="matrix(1 0 0 1 -15 670)">
	</image>
	<g>
		<path fill="#EF3A48" d="M1325.5,1337.1L601.3,1523c-34.1,8.8-72.7,3.7-100.2-13.4c-26.4-16.4-31.1-40.1-14.8-59.7L1082.2,724
			c12.6-14.9,5.3-27.6-9.1-36.6c-15.5-9.6-37-11.4-57.6-4.8L355,899c-73.5,24.1-133.4,18-194.3-19.8L-6.3,775.3v-14.1l0,0V1800
			h2192.8l-701.2-436C1432,1330.9,1387.2,1323.4,1325.5,1337.1z"/>
	</g>
</g>
<g opacity="0.215">
	
		<image overflow="visible" opacity="0.75" width="1504" height="500" xlink:href="3E49BEBA0491F616.png"  transform="matrix(1 0 0 1 705 1322)">
	</image>
	<g>
		<path fill="#F3756E" d="M713.7,1800h1472.8l-701.2-436c-53.3-33.1-98.1-40.7-159.7-26.9l-294.3,75.5
			C879.6,1597.5,713.9,1799.8,713.7,1800z"/>
	</g>
</g>
<g opacity="0.1072">
	
		<image overflow="visible" opacity="0.75" width="1126" height="691" xlink:href="3E49BEBA0491F617.png"  transform="matrix(1 0 0 1 -15 670)">
	</image>
	<g>
		<path fill="#F3756E" d="M350.3,1332.4c12.2-2.7,147.6-43.2,307.5-91.4l424.4-517c12.6-14.9,5.3-27.6-9.1-36.6
			c-15.5-9.6-37-11.4-57.6-4.8L355,899c-73.5,24.1-133.4,18-194.3-19.8L-6.3,775.3l0,407.8l196.9,122.4
			C243.8,1338.6,288.6,1346.2,350.3,1332.4z"/>
	</g>
</g>
<g opacity="0.2482">
	
		<image overflow="visible" opacity="0.75" width="717" height="894" xlink:href="3E49BEBA0491F618.png"  transform="matrix(1 0 0 1 -15 928)">
	</image>
	<g>
		<path fill="#FEC55C" d="M520.1,944.8c45.2-14.5,94.1-10.6,128,10.4c26,16.1,46,47.6,18.3,80.2C617.9,1092.7,333.4,1439.5,38,1800
			H-6.3v-683.3C245.4,1034.3,457.7,964.8,520.1,944.8z"/>
	</g>
</g>
<g opacity="0.2573">
	
		<image overflow="visible" opacity="0.75" width="717" height="433" xlink:href="3E49BEBA0491F61B.png"  transform="matrix(1 0 0 1 -15 928)">
	</image>
	<g>
		<path fill="#4B1D3D" d="M648.1,955.2c-33.9-21.1-82.8-25-128-10.4c-62.4,20.1-274.7,89.5-526.5,172v66.3l196.9,122.4
			c53.3,33.1,98,40.7,159.7,26.9c5.9-1.3,40.9-11.5,93.5-27.2c114.6-139.5,198.3-241,222.6-269.8
			C694.1,1002.8,674.1,971.4,648.1,955.2z"/>
	</g>
</g>
<g opacity="0.1421">
	
		<image overflow="visible" opacity="0.75" width="734" height="435" xlink:href="3E49BEBA0491F619.png"  transform="matrix(1 0 0 1 1475 1387)">
	</image>
	<g>
		<path fill="#FEC55C" d="M1500.4,1453c7.9-14.1,20.4-33.5,35.9-57.3l650.1,404.2h-319.5l-294.2-182.9
			C1475.7,1556.8,1469.2,1508.5,1500.4,1453z"/>
	</g>
</g>
<g opacity="0.2419">
	
		<image overflow="visible" opacity="0.75" width="910" height="315" xlink:href="3E49BEBA0491F61F.png"  transform="matrix(1 0 0 1 815 1507)">
	</image>
	<g>
		<linearGradient id="SVGID_10_" gradientUnits="userSpaceOnUse" x1="865.1548" y1="2197.8352" x2="1659.886" y2="1403.1039">
			<stop  offset="0.3653" style="stop-color:#00B7BA"/>
			<stop  offset="0.548" style="stop-color:#01B5B9"/>
			<stop  offset="0.6138" style="stop-color:#04AEB3"/>
			<stop  offset="0.6608" style="stop-color:#0AA2AA"/>
			<stop  offset="0.6987" style="stop-color:#12929C"/>
			<stop  offset="0.7312" style="stop-color:#1D7C8A"/>
			<stop  offset="0.7599" style="stop-color:#2A6074"/>
			<stop  offset="0.7853" style="stop-color:#3A415A"/>
			<stop  offset="0.8084" style="stop-color:#4B1D3D"/>
		</linearGradient>
		<polygon fill="url(#SVGID_10_)" points="1244.7,1515.7 823.9,1800 1702.1,1800 		"/>
	</g>
</g>
<g opacity="0.2189">
	
		<image overflow="visible" opacity="0.75" width="364" height="382" xlink:href="3E49BEBA0491F633.png"  transform="matrix(1 0 0 1 -15 1440)">
	</image>
	<g>
		<linearGradient id="SVGID_11_" gradientUnits="userSpaceOnUse" x1="-99.7792" y1="1503.6709" x2="339.7736" y2="1707.9703">
			<stop  offset="0.303" style="stop-color:#00B7BA"/>
			<stop  offset="0.4867" style="stop-color:#01B5B9"/>
			<stop  offset="0.5529" style="stop-color:#04AEB3"/>
			<stop  offset="0.6001" style="stop-color:#0AA2AA"/>
			<stop  offset="0.6382" style="stop-color:#12929C"/>
			<stop  offset="0.6709" style="stop-color:#1D7C8A"/>
			<stop  offset="0.6998" style="stop-color:#2A6074"/>
			<stop  offset="0.7253" style="stop-color:#3A415A"/>
			<stop  offset="0.7485" style="stop-color:#4B1D3D"/>
		</linearGradient>
		<path fill="url(#SVGID_11_)" d="M-6.3,1554.1V1800H38c100.2-122.3,199.1-243,288-351.3C243.1,1475,116.7,1515.1-6.3,1554.1z"/>
	</g>
</g>
<g opacity="0.2654">
	
		<image overflow="visible" opacity="0.75" width="2288" height="1180" xlink:href="3E49BEBA0491F63D.png"  transform="matrix(1 0 0 1 -15 642)">
	</image>
	<g>
		<path fill="#FEDEC5" d="M-6.3,735.6l199,123.7c53.6,33.3,93.8,30.4,141.2,14.8l660.8-216.4c37.9-12.2,81.1-8.3,110.3,9.9
			c28.2,17.5,36.6,46.6,17.1,69.5l-595.8,725.7c-10.8,13,1,23.1,6.6,26.9c10.2,6.8,29.5,12.9,51,7.3
			c12.9-3.3,667.2-173.1,726.3-186.3c77.9-17.4,141.7-7.1,206.9,33.5l733.1,455.8h-63.9l-701.2-436c-53.3-33.1-98.1-40.7-159.7-26.9
			L601.3,1523c-34.1,8.8-72.7,3.7-100.2-13.4c-26.4-16.4-31.1-40.1-14.8-59.7L1082.2,724c12.6-14.9,5.3-27.6-9.1-36.6
			c-15.5-9.6-37-11.4-57.6-4.8L355,899c-73.5,24.1-133.4,18-194.3-19.8L-6.3,775.3V735.6z"/>
	</g>
</g>
<g opacity="0.1516">
	
		<image overflow="visible" opacity="0.75" width="1065" height="330" xlink:href="3E49BEBA0491F63F.png"  transform="matrix(1 0 0 1 230 1492)">
	</image>
	<g>
		<path fill="#FEC55C" d="M1135.7,1506.5c38.9-12.5,90.1-2.6,109.1,9.2c22.8,14.2,40.8,40.8,16.9,68.9
			c-20,23.6-86.3,104-177.9,215.5h-845C603.6,1680.3,1046.6,1535.1,1135.7,1506.5z"/>
	</g>
</g>
<g opacity="0.1987">
	
		<image overflow="visible" opacity="0.75" width="590" height="330" xlink:href="3E49BEBA0491F632.png"  transform="matrix(1 0 0 1 705 1492)">
	</image>
	<g>
		<path fill="#FEDEC5" d="M1261.7,1584.5c23.8-28.1,5.8-54.7-16.9-68.9c-19-11.8-70.1-21.7-109.1-9.2
			c-35.5,11.4-127.1,41.3-247.6,80.7c-97.1,118.5-174.3,212.6-174.4,212.8h370.1C1175.4,1688.6,1241.7,1608.1,1261.7,1584.5z"/>
	</g>
</g>
<g opacity="0.1641">
	
		<image overflow="visible" opacity="0.75" width="475" height="407" xlink:href="3E49BEBA0491F631.png"  transform="matrix(1 0 0 1 -15 1415)">
	</image>
	<g>
		<path fill="#4B1D3D" d="M432.4,1469.1c10.4-12.5,4.4-28.5-8.6-36.5c-15.8-9.8-39.7-12-59.3-5.6c-26.1,8.5-207.7,66.1-370.9,117.8
			v16.8c166-52.6,355.3-112.5,382.1-121.3c12.7-4.2,23.7-1.4,30.1,2.7c8.2,5.1,10.9,12.6,5.2,19.4c-17.2,20.6-185,218.3-185,218.3
			c-20.6,24.3-15.4,44.1,16.9,64.2l88.8,55.2h34L260,1734.2c-28.5-17.7-26-31-12.7-46.7C247.4,1687.5,415.2,1489.7,432.4,1469.1z"/>
	</g>
</g>
</svg>
